#!OML:ASF X:\für Bonn\!DataBase\2005_08_10_Bjorn_Final\c3d\bjorn.ASF
:FULLY-SPECIFIED
:DEGREES
187
root 0.410862 19.7982 -0.360655 -177.898 25.5256 184.866
lowerback -6.70767 3.79506 2.7511
upperback 3.07715 5.09599 -2.92467
thorax 7.51891 2.74938 -3.9355
lowerneck -4.31742 2.99173 11.1306
upperneck 12.5856 3.80205 -2.64894
head 4.76102 2.3915 -2.40704
rclavicle -8.64713e-015 4.77083e-014
rhumerus -270.444 18.557 235.368
rradius 8.76128
rwrist 72.3874
rhand -23.6084 8.92227
rfingers 7.12502
rthumb 2.85557 -21.0384
lclavicle -8.64713e-015 4.77083e-014
lhumerus 69.0017 -15.5368 93.9417
lradius 41.4649
lwrist 42.6452
lhand -49.5992 1.64442
lfingers 7.12502
lthumb -22.2044 30.3891
rfemur 2.99711 2.50404 6.79525
rtibia 28.794
rfoot 17.7437 17.7215
rtoes -22.1887
lfemur -12.9571 4.90593 -8.68936
ltibia 29.6893
lfoot 1.20066 -13.1155
ltoes -4.35945
188
root 0.392948 19.7286 -0.389967 -178.118 25.6709 185.013
lowerback -6.65467 3.8055 2.86873
upperback 3.21044 5.10249 -2.88696
thorax 7.63959 2.76246 -3.95968
lowerneck -4.18072 2.96299 10.8863
upperneck 12.6331 3.78102 -2.38629
head 4.74174 2.39183 -2.28885
rclavicle -9.71063e-014 -1.11319e-014
rhumerus -270.473 18.4129 235.236
rradius 8.75738
rwrist 72.1575
rhand -23.3578 9.10783
rfingers 7.12502
rthumb 3.09759 -20.8494
lclavicle -9.71063e-014 -1.11319e-014
lhumerus 68.9958 -15.494 93.7655
lradius 41.3708
lwrist 42.7152
lhand -49.857 1.83222
lfingers 7.12502
lthumb -22.4519 30.5472
rfemur 3.51674 2.80772 6.78877
rtibia 28.6729
rfoot 17.2751 17.9591
rtoes -21.4845
lfemur -12.6308 5.22642 -8.66049
ltibia 30.013
lfoot 0.0339338 -13.4191
ltoes -3.48704
189
root 0.37506 19.6614 -0.418364 -178.323 25.8049 185.16
lowerback -6.64238 3.81212 2.99529
upperback 3.35909 5.10249 -2.84397
thorax 7.80035 2.77367 -3.98118
lowerneck -4.07092 2.93895 10.6197
upperneck 12.6714 3.76233 -2.1246
head 4.72388 2.3908 -2.16705
rclavicle 4.96962e-016 3.65764e-014
rhumerus -270.501 18.3517 235.122
rradius 8.70439
rwrist 72.0026
rhand -23.1193 9.19588
rfingers 7.12502
rthumb 3.32793 -20.7579
lclavicle 4.96962e-016 3.65764e-014
lhumerus 68.9717 -15.4422 93.5725
lradius 41.3375
lwrist 42.8903
lhand -50.1658 2.12655
lfingers 7.12502
lthumb -22.7482 30.8054
rfemur 3.98964 3.15135 6.81462
rtibia 28.6108
rfoot 16.7051 18.1679
rtoes -20.6537
lfemur -12.3242 5.54254 -8.62835
ltibia 30.3021
lfoot -1.15659 -13.7211
ltoes -3.03752
190
root 0.357867 19.595 -0.44516 -178.528 25.937 185.268
lowerback -6.63818 3.82138 3.09719
upperback 3.48699 5.11008 -2.82518
thorax 7.94466 2.78801 -4.01346
lowerneck -3.93612 2.90901 10.4313
upperneck 12.7337 3.74078 -1.91644
head 4.71165 2.39079 -2.07491
rclavicle 6.71892e-014 -7.95139e-015
rhumerus -270.6 18.2421 234.988
rradius 8.67562
rwrist 71.8556
rhand -22.8635 9.22179
rfingers 7.12502
rthumb 3.57495 -20.728
lclavicle 6.71892e-014 -7.95139e-015
lhumerus 68.9406 -15.4218 93.3506
lradius 41.2985
lwrist 43.2014
lhand -50.5099 2.40571
lfingers 7.12502
lthumb -23.0785 31.0437
rfemur 4.41707 3.51289 6.82098
rtibia 28.6001
rfoot 16.0669 18.3845
rtoes -19.896
lfemur -12.0311 5.79867 -8.6301
ltibia 30.5651
lfoot -2.36413 -13.9578
ltoes -2.65915
191
root 0.33998 19.532 -0.470446 -178.715 26.0645 185.379
lowerback -6.65543 3.82847 3.2116
upperback 3.61949 5.11209 -2.79645
thorax 8.10636 2.80034 -4.04154
lowerneck -3.92197 2.88231 10.2143
upperneck 12.9783 3.71971 -1.72825
head 4.77558 2.39539 -1.98166
rclavicle -8.07066e-014 1.59028e-014
rhumerus -270.713 18.1725 234.875
rradius 8.62368
rwrist 71.7574
rhand -22.6405 9.08887
rfingers 7.12502
rthumb 3.79025 -20.8572
lclavicle -8.07066e-014 1.59028e-014
lhumerus 68.9389 -15.4032 93.1667
lradius 41.2209
lwrist 43.6179
lhand -50.8554 2.40115
lfingers 7.12502
lthumb -23.4099 30.9973
rfemur 4.79463 3.86887 6.84917
rtibia 28.6426
rfoot 15.3501 18.6549
rtoes -19.3276
lfemur -11.7505 6.04268 -8.62835
ltibia 30.8053
lfoot -3.58221 -14.1549
ltoes -2.56726
192
root 0.322767 19.4721 -0.49393 -178.896 26.1953 185.461
lowerback -6.69958 3.83609 3.28569
upperback 3.75071 5.11846 -2.76982
thorax 8.27945 2.81303 -4.04692
lowerneck -4.0711 2.85767 10.0501
upperneck 13.4609 3.69328 -1.59467
head 4.94236 2.40616 -1.91028
rclavicle -3.58806e-014 0
rhumerus -270.823 18.1108 234.771
rradius 8.55202
rwrist 71.6784
rhand -22.4029 8.85474
rfingers 7.12502
rthumb 4.01972 -21.0871
lclavicle -3.58806e-014 0
lhumerus 68.9391 -15.3878 92.9751
lradius 41.1669
lwrist 44.1324
lhand -51.1912 2.24639
lfingers 7.12502
lthumb -23.732 30.8011
rfemur 5.12932 4.26479 6.88341
rtibia 28.7247
rfoot 14.5655 18.8632
rtoes -19.0284
lfemur -11.4832 6.25602 -8.65263
ltibia 31.0305
lfoot -4.7365 -14.3068
ltoes -2.52537
193
root 0.305857 19.4161 -0.515823 -179.048 26.3194 185.538
lowerback -6.75673 3.83488 3.33823
upperback 3.86168 5.11157 -2.72658
thorax 8.43324 2.81625 -4.02442
lowerneck -4.16938 2.8358 9.89387
upperneck 13.9567 3.68532 -1.50887
head 5.10705 2.42526 -1.85449
rclavicle 4.48259e-014 -7.95139e-015
rhumerus -270.975 18.0509 234.677
rradius 8.4628
rwrist 71.6236
rhand -22.2087 8.5953
rfingers 7.12502
rthumb 4.20726 -21.3429
lclavicle 4.48259e-014 -7.95139e-015
lhumerus 68.9109 -15.3428 92.8276
lradius 41.0899
lwrist 44.6427
lhand -51.4309 1.86657
lfingers 7.12502
lthumb -23.9618 30.3912
rfemur 5.39349 4.6188 6.93368
rtibia 28.8356
rfoot 13.7431 19.1548
rtoes -19.2872
lfemur -11.2531 6.43007 -8.67698
ltibia 31.2466
lfoot -5.73103 -14.3891
ltoes -2.31025
194
root 0.288194 19.3646 -0.537295 -179.203 26.4369 185.586
lowerback -6.82488 3.83257 3.37577
upperback 3.9788 5.10541 -2.68853
thorax 8.5996 2.81973 -3.99802
lowerneck -4.19542 2.80683 9.7578
upperneck 14.3717 3.67865 -1.47143
head 5.23597 2.43996 -1.81843
rclavicle -5.13858e-014 1.59028e-015
rhumerus -271.139 18.0011 234.599
rradius 8.38495
rwrist 71.5359
rhand -22.0821 8.32425
rfingers 7.12502
rthumb 4.32945 -21.6115
lclavicle -5.13858e-014 1.59028e-015
lhumerus 68.8833 -15.2947 92.7027
lradius 41.0176
lwrist 45.1278
lhand -51.6456 1.40087
lfingers 7.12502
lthumb -24.1678 29.8983
rfemur 5.62448 4.98082 6.97167
rtibia 28.9615
rfoot 12.9522 19.3421
rtoes -19.5656
lfemur -11.0361 6.57054 -8.72928
ltibia 31.4557
lfoot -6.64233 -14.4291
ltoes -2.15964
195
root 0.270384 19.318 -0.556761 -179.324 26.5611 185.616
lowerback -6.92439 3.8291 3.40136
upperback 4.09508 5.09945 -2.66356
thorax 8.78399 2.82339 -3.97691
lowerneck -4.20652 2.79052 9.67033
upperneck 14.7114 3.68645 -1.46212
head 5.34154 2.45852 -1.79868
rclavicle -6.82825e-014 -1.11319e-014
rhumerus -271.293 17.9775 234.517
rradius 8.28349
rwrist 71.4714
rhand -22.0786 8.09752
rfingers 7.12502
rthumb 4.33288 -21.8382
lclavicle -6.82825e-014 -1.11319e-014
lhumerus 68.8841 -15.2375 92.4972
lradius 40.9658
lwrist 45.5998
lhand -51.9302 0.978485
lfingers 7.12502
lthumb -24.4406 29.4394
rfemur 5.79419 5.31311 6.9958
rtibia 29.0984
rfoot 12.243 19.4999
rtoes -19.7951
lfemur -10.8616 6.6582 -8.80187
ltibia 31.6473
lfoot -7.52617 -14.4093
ltoes -2.15822
196
root 0.253197 19.2777 -0.574271 -179.439 26.6859 185.625
lowerback -7.01877 3.83537 3.41439
upperback 4.20277 5.1098 -2.65632
thorax 8.95876 2.83489 -3.96559
lowerneck -4.16013 2.76641 9.59768
upperneck 14.9414 3.68136 -1.42981
head 5.40269 2.46861 -1.77635
rclavicle -9.12422e-014 7.95139e-015
rhumerus -271.478 17.8936 234.438
rradius 8.23525
rwrist 71.3881
rhand -22.1569 7.97181
rfingers 7.12502
rthumb 4.25722 -21.9654
lclavicle -9.12422e-014 7.95139e-015
lhumerus 68.8634 -15.216 92.273
lradius 40.9261
lwrist 45.92
lhand -52.2389 0.883266
lfingers 7.12502
lthumb -24.7365 29.3039
rfemur 5.92742 5.62355 7.00807
rtibia 29.2473
rfoot 11.6077 19.5759
rtoes -20.1214
lfemur -10.6911 6.70504 -8.89153
ltibia 31.8066
lfoot -8.3369 -14.3261
ltoes -2.23129
197
root 0.235095 19.2435 -0.59006 -179.566 26.8135 185.574
lowerback -7.10686 3.84892 3.3848
upperback 4.29545 5.13642 -2.66827
thorax 9.11325 2.85204 -3.94903
lowerneck -4.00745 2.73106 9.53609
upperneck 14.986 3.66396 -1.40995
head 5.38765 2.46434 -1.76327
rclavicle -1.02374e-014 1.74931e-014
rhumerus -271.697 17.7742 234.37
rradius 8.22072
rwrist 71.2778
rhand -22.2871 7.93499
rfingers 7.12502
rthumb 4.13154 -22.0047
lclavicle -1.02374e-014 1.74931e-014
lhumerus 68.8241 -15.2201 92.0025
lradius 40.9004
lwrist 46.1233
lhand -52.5742 1.07438
lfingers 7.12502
lthumb -25.0578 29.4506
rfemur 6.01334 5.88814 6.94193
rtibia 29.4129
rfoot 11.1358 19.5705
rtoes -20.0001
lfemur -10.52 6.70266 -9.04008
ltibia 31.913
lfoot -9.05599 -14.1889
ltoes -2.2996
198
root 0.217681 19.2162 -0.602479 -179.685 26.9347 185.492
lowerback -7.19653 3.8539 3.3044
upperback 4.38358 5.15747 -2.6829
thorax 9.25849 2.86317 -3.9078
lowerneck -3.80684 2.70409 9.47819
upperneck 14.9393 3.65772 -1.38948
head 5.33678 2.46155 -1.75117
rclavicle -2.51463e-014 -5.40694e-014
rhumerus -271.976 17.6167 234.308
rradius 8.27105
rwrist 71.1432
rhand -22.4711 8.07648
rfingers 7.12502
rthumb 3.95386 -21.8666
lclavicle -2.51463e-014 -5.40694e-014
lhumerus 68.7577 -15.2088 91.7689
lradius 40.8824
lwrist 46.2181
lhand -52.7824 1.31525
lfingers 7.12502
lthumb -25.2573 29.6634
rfemur 6.04547 6.12691 6.84868
rtibia 29.6003
rfoot 10.719 19.5147
rtoes -19.9255
lfemur -10.3591 6.68087 -9.21883
ltibia 31.959
lfoot -9.72686 -14.0244
ltoes -2.57367
